<?xml version="1.0" encoding="UTF-8"?>
<svg width="128pt" height="128pt" version="1.1" viewBox="0 0 128 128" xmlns="http://www.w3.org/2000/svg">
 <path d="m59.148 26.086-8.5508-5.1172-5.832 7.2773-5.5234-5.5-0.23047 0.03125c-0.058594 0.007812-5.7969 0.75391-9.7812 0.011718-0.27344-0.10156-1.5391-0.49219-3.0703 0.15234-1.7109 0.72266-3.1055 2.4414-4.1445 5.1016l-0.03125 0.12109c-0.0625 0.60156-0.53906 5.9062 1.9219 7.1016l0.17188 0.082031 5.0938-1.6953h3.1719l4.5938 1.5273 0.011719 1.7852 1.6992 9.8359 3.1094 1.0312-1.5859 3.6914 3.1602 3.1523-19.793 16.5 10.184 23.703 30.273 13.422 30.105-13.348 0.16797-0.074219 10.184-23.703-19.816-16.469 3.1797-3.1758-1.5859-3.6914 3.1094-1.0312 1.6992-9.8359 0.011719-1.7852 4.5938-1.5273h3.1719l5.0938 1.6953 0.17188-0.082031c2.4609-1.1953 1.9883-6.5 1.9258-7.1016l-0.03125-0.12109c-1.0391-2.6641-2.4336-4.3789-4.1445-5.1016-1.5312-0.64453-2.793-0.25391-3.0703-0.15234-3.9805 0.74219-9.7227-0.003906-9.7812-0.011719l-0.23047-0.03125-5.5234 5.5-5.8359-7.2773-8.5508 5.1172zm9.9648 0.9375 8.0703-4.832 5.3867 6.7188-0.49609 0.49219h-3.3125l-7.0234 7.0078 1.9297 3.7695 10.172 8.457 1.5-0.5 1.3672 3.1797-8.418 8.3984 3.5859 3.4844-7.582-2.2188-1.6367-3.1797-3.7578-1.9766-4.8984 4.8828-4.8945-4.8828-3.7578 1.9766-1.6367 3.1797-7.7969 2.2812 3.8008-3.5469-8.418-8.3984 1.3672-3.1797 1.5 0.5 10.082-8.1875 2.0234-4.0391-7.0234-7.0078h-3.3203l-0.49219-0.49219 5.3867-6.7148 8.0703 4.832zm-36.539 5.7188-3.4727-0.023438-4.9375 1.6172c-1.4102-0.93359-1.3906-4.5625-1.25-6.0117 0.9375-2.3711 2.1445-3.8867 3.5898-4.5117 1.3281-0.57031 2.375-0.16016 2.418-0.14062l0.09375 0.027344c3.7188 0.70703 8.7461 0.17188 9.8906 0.035156l5.6914 5.6719-0.69531-0.003906-2.1406 1.6016c-1.668-0.60938-5.332-2.375-5.5469-4.4961l-0.046875-0.47266-0.47266 0.054688c-2.1797 0.24609-8.1719 0.73828-9.7266 0.039062l-0.38281 0.85547c1.8594 0.83984 7.9727 0.27344 9.7812 0.085937 0.62109 2.3242 3.9453 3.9492 5.5117 4.5938l-3.5547 2.6602zm5.3086 2.3359 2.5078-1.875 2.4492-1.832 1.3789-1.0312h4.6367l6.2734 6.2578-1.3008 2.5938-2.7656-1.3789-1.7188-3.3867-5.3828-0.046875-3.3203 1.6602h-2.7383zm12.238 2.9648c-2.7578 2.4062-5.0195 3.3711-6.5469 2.7578-1.7109-0.6875-2.207-3.1562-2.332-4.0273l2.9258-1.4609 4.5859 0.039062zm-10.629 8.0508-1.5156-9.125h2.3477c0.16016 1.0781 0.76562 3.8398 2.9023 4.6992 0.41797 0.16797 0.86719 0.25391 1.3438 0.25391 1.7031 0 3.7852-1.0781 6.2109-3.2031l2.4023 1.1992-9.2188 7.6641zm14.863 15.672 1.6875-3.2773 2.8867-1.5156 4.7422 4.7305h0.65625l4.7422-4.7305 2.8867 1.5156 1.6875 3.2773 11.648 3.4062 6.4102 11.105-3.0625 4.7031-14.645 3.1172-9.5234-3.168v-6.2969h-0.94531v6.2969l-9.5234 3.168-14.645-3.1172-3.0586-4.7031 6.4102-11.105zm32.125 20.637-4.5469 8.5977-6.3398 3.1641-11.59-3.4336-11.59 3.4336-6.3398-3.1641-4.2188-8.5273 12.203 2.5977 9.9414-3.3047 9.9414 3.3047zm16.84-10.945-9.7617 22.723-29.555 13.105-29.559-13.105-9.7617-22.723 19.324-16.105 4.375 4.3633-4.0039 3.9922-2.293 0.67188-6.8867 11.93 3.5859 5.5117 1.8984 0.40234 4.6875 9.4727 6.9531 3.4688 11.676-3.4609 11.676 3.4609 6.9531-3.4688 4.6875-9.4766 1.8906-0.40234 3.5859-5.5117-6.8867-11.93-2.293-0.67188-4.0039-3.9922 4.3516-4.3438zm-14.227-47.727c1.1445 0.13672 6.1719 0.67188 9.8906-0.035157l0.09375-0.027343c0.042969-0.019531 1.0898-0.42969 2.418 0.14062 1.4453 0.62109 2.6523 2.1406 3.5898 4.5117 0.14062 1.4492 0.16016 5.0781-1.2539 6.0117l-4.7891-1.5938-3.4727-0.023437-4.9023 1.6055-3.5547-2.6602c1.5664-0.64844 4.8945-2.2695 5.5156-4.5938 1.8125 0.1875 7.9219 0.75391 9.7812-0.085937l-0.38281-0.85547c-1.5547 0.69922-7.5469 0.21094-9.7266-0.039062l-0.47266-0.054688-0.046875 0.47266c-0.21875 2.1172-3.8867 3.8867-5.5508 4.4961l-2.1406-1.6016h-0.69531zm-16.219 12.863 6.2734-6.2578h4.6367l1.3789 1.0312 0.074219 0.054687 4.8789 3.6523-0.007813 0.95312h-2.7383l-3.3203-1.6602-5.3828 0.046874-1.7227 3.3867-2.7656 1.3789zm13.879 0.17969c-0.12109 0.86719-0.61328 3.3359-2.3281 4.0234-1.5273 0.61328-3.7891-0.34766-6.5469-2.7578l1.3672-2.6875 4.5859-0.039062zm-2.7148 10.809-9.3984-7.8125 2.5547-1.0742c2.4375 2.1406 4.5273 3.2227 6.2344 3.2227 0.47656 0 0.92578-0.082031 1.3438-0.25391 2.1367-0.85937 2.7422-3.6211 2.9023-4.6992h2.3477l-1.5156 9.125zm-15.258 15.309 1.8711 1.9453 1.6523-2.9062h0.011718v-0.9375h-3.6094l-1.793 3.4844 0.83203 0.42969zm-11.336 1.9453 1.8711-1.9453 1.0352 2.0117 0.83203-0.42969-1.793-3.4805h-3.6094v0.9375h0.011719z"/>
</svg>
